<svg width="24" height="24" viewBox="0 0 24 24" fill="none" xmlns="http://www.w3.org/2000/svg">
<g clip-path="url(#clip0_51_246)">
<path d="M20 4.94476H10.88L10 1.99371H4C2.9 1.99371 2 2.87903 2 3.96108V16.7489C2 17.831 2.9 18.7163 4 18.7163H11L12 21.6673H20C21.1 21.6673 22 20.782 22 19.7V6.91212C22 5.83007 21.1 4.94476 20 4.94476ZM7.17 14.3783C4.92 14.3783 3.08 12.5781 3.08 10.355C3.08 8.13188 4.91 6.33175 7.17 6.33175C8.21 6.33175 9.16 6.69571 9.91 7.38428L9.98 7.44331L8.75 8.60405L8.69 8.55487C8.4 8.28927 7.91 7.97449 7.17 7.97449C5.86 7.97449 4.79 9.04671 4.79 10.355C4.79 11.6633 5.86 12.7355 7.17 12.7355C8.54 12.7355 9.13 11.8797 9.29 11.2993H7.08V9.77463H11.03L11.04 9.84349C11.08 10.0501 11.09 10.237 11.09 10.4435C11.09 12.7552 9.48 14.3783 7.17 14.3783V14.3783ZM13.2 12.6962C13.53 13.2864 13.94 13.8569 14.39 14.3684L13.85 14.8898L13.2 12.6962V12.6962ZM13.97 11.9486H12.98L12.67 10.9255H16.66C16.66 10.9255 16.32 12.2142 15.1 13.6208C14.58 13.0109 14.21 12.4109 13.97 11.9486V11.9486ZM21 19.7C21 20.241 20.55 20.6837 20 20.6837H13L15 18.7163L14.19 15.9915L15.11 15.0865L17.79 17.7326L18.52 17.0145L15.81 14.3783C16.71 13.3651 17.41 12.165 17.73 10.9255H19V9.90251H15.36V8.87948H14.32V9.90251H12.36L11.18 5.92844H20C20.55 5.92844 21 6.37109 21 6.91212V19.7Z" fill="url(#paint0_linear_51_246)"/>
</g>
<defs>
<linearGradient id="paint0_linear_51_246" x1="12" y1="1.99371" x2="12" y2="21.6673" gradientUnits="userSpaceOnUse">
<stop stop-color="#709FC0"/>
<stop offset="1" stop-color="#356E98"/>
</linearGradient>
<clipPath id="clip0_51_246">
<rect width="24" height="23.6083" fill="white" transform="translate(0 0.0263672)"/>
</clipPath>
</defs>
</svg>
