<svg width="22" height="19" viewBox="0 0 22 19" fill="none" xmlns="http://www.w3.org/2000/svg">
<path d="M17.15 0.590012L13.15 4.52474C13.05 4.6231 13 4.74115 13 4.87886V12.9155C13 13.3385 13.51 13.5648 13.83 13.2795L17.83 9.73824C17.94 9.64971 18 9.512 18 9.37428V0.944137C18 0.501481 17.46 0.285071 17.15 0.590012ZM21.47 4.37718C21 4.1411 20.51 3.94436 20 3.77714V15.6108C18.86 15.2075 17.69 15.0009 16.5 15.0009C14.6 15.0009 12.72 15.5321 11 16.5552V4.65261C9.38 3.73779 7.51 3.19677 5.5 3.19677C3.71 3.19677 2.02 3.62959 0.53 4.37718C0.2 4.53457 0 4.87886 0 5.24282V17.1257C0 17.8733 0.81 18.3356 1.48 17.9815C2.69 17.3618 4.05 16.9683 5.5 16.9683C7.57 16.9683 9.48 17.7749 11 18.9357C12.52 17.7749 14.43 16.9683 16.5 16.9683C17.95 16.9683 19.31 17.3618 20.52 17.9913C21.19 18.3455 22 17.8831 22 17.1355V5.24282C22 4.87886 21.8 4.53457 21.47 4.37718Z" fill="url(#paint0_linear_51_252)"/>
<defs>
<linearGradient id="paint0_linear_51_252" x1="11" y1="0.447754" x2="11" y2="18.9357" gradientUnits="userSpaceOnUse">
<stop stop-color="#709FC0"/>
<stop offset="1" stop-color="#356E98"/>
</linearGradient>
</defs>
</svg>
