<svg width="197" height="90" viewBox="0 0 197 90" fill="none" xmlns="http://www.w3.org/2000/svg">
<path d="M33.5469 29H28.4297V12.3203L19.4258 28.1602C19.2044 28.5638 18.8919 28.8698 18.4883 29.0781C18.0977 29.2865 17.6745 29.3906 17.2188 29.3906C16.776 29.3906 16.3594 29.2865 15.9688 29.0781C15.5911 28.8698 15.2917 28.5638 15.0703 28.1602L6.02734 12.3203V29H0.949219V3.16016C0.949219 2.57422 1.11849 2.05339 1.45703 1.59766C1.80859 1.14193 2.26432 0.835942 2.82422 0.679692C3.09766 0.614588 3.37109 0.595057 3.64453 0.621098C3.91797 0.634119 4.17839 0.692713 4.42578 0.79688C4.6862 0.888025 4.92057 1.02474 5.12891 1.20704C5.33724 1.37631 5.51302 1.58464 5.65625 1.83204L17.2188 21.9297L28.7812 1.83204C29.0807 1.33724 29.4909 0.985682 30.0117 0.777348C30.5456 0.569015 31.099 0.536463 31.6719 0.679692C32.2188 0.835942 32.668 1.14193 33.0195 1.59766C33.3711 2.05339 33.5469 2.57422 33.5469 3.16016V29Z" fill="#141414"/>
<path d="M66.9453 29H61.8672V22.125H44.0156V29H38.9375V14.9961C38.9375 12.9518 39.2891 11.0703 39.9922 9.35157C40.6953 7.63282 41.6719 6.15495 42.9219 4.91797C44.1719 3.68099 45.6497 2.71745 47.3555 2.02735C49.0612 1.33724 50.9232 0.992192 52.9414 0.992192H64.3867C64.7383 0.992192 65.0703 1.0573 65.3828 1.1875C65.6953 1.31771 65.9688 1.5 66.2031 1.73438C66.4375 1.96875 66.6198 2.24219 66.75 2.55469C66.8802 2.86719 66.9453 3.19922 66.9453 3.55079V29ZM44.0156 17.0469H61.8672V6.07032H52.9414C52.7852 6.07032 52.4531 6.09636 51.9453 6.14844C51.4505 6.1875 50.8711 6.29818 50.207 6.48047C49.556 6.66276 48.8659 6.94271 48.1367 7.32032C47.4076 7.69792 46.737 8.21875 46.125 8.88282C45.513 9.54688 45.0052 10.3802 44.6016 11.3828C44.2109 12.3724 44.0156 13.5768 44.0156 14.9961V17.0469Z" fill="#141414"/>
<path d="M100.852 10.4063C100.852 11.5651 100.708 12.6003 100.422 13.5117C100.135 14.4232 99.7448 15.2305 99.25 15.9336C98.7682 16.6237 98.2083 17.2161 97.5703 17.7109C96.9323 18.2057 96.2617 18.6159 95.5586 18.9414C94.8685 19.2539 94.1654 19.4818 93.4492 19.625C92.7461 19.7682 92.082 19.8398 91.457 19.8398L102.062 29H94.2109L83.625 19.8398H79.9727V14.7617H91.457C92.0951 14.7096 92.6745 14.5794 93.1953 14.3711C93.7292 14.1497 94.1849 13.8568 94.5625 13.4922C94.9531 13.1276 95.2526 12.6914 95.4609 12.1836C95.6693 11.6628 95.7734 11.0703 95.7734 10.4063V7.20313C95.7734 6.91667 95.7344 6.70183 95.6562 6.5586C95.5911 6.40235 95.5 6.29167 95.3828 6.22657C95.2786 6.14844 95.1615 6.10287 95.0312 6.08985C94.9141 6.07683 94.8034 6.07032 94.6992 6.07032H77.9414V29H72.8633V3.55079C72.8633 3.19922 72.9284 2.86719 73.0586 2.55469C73.1888 2.24219 73.3646 1.96875 73.5859 1.73438C73.8203 1.5 74.0938 1.31771 74.4062 1.1875C74.7188 1.0573 75.0573 0.992192 75.4219 0.992192H94.6992C95.832 0.992192 96.7891 1.20053 97.5703 1.61719C98.3516 2.02084 98.9831 2.53516 99.4648 3.16016C99.9596 3.77214 100.311 4.4362 100.52 5.15235C100.741 5.86849 100.852 6.53907 100.852 7.16407V10.4063Z" fill="#141414"/>
<path d="M131.027 29H112.707C112.238 29 111.73 28.9479 111.184 28.8438C110.65 28.7266 110.116 28.5508 109.582 28.3164C109.061 28.082 108.56 27.7826 108.078 27.418C107.596 27.0404 107.167 26.5911 106.789 26.0703C106.424 25.5365 106.132 24.9245 105.91 24.2344C105.689 23.5313 105.578 22.7435 105.578 21.8711V8.1211C105.578 7.65235 105.63 7.15105 105.734 6.61719C105.852 6.07032 106.027 5.53646 106.262 5.01563C106.496 4.48178 106.802 3.97396 107.18 3.49219C107.557 3.01042 108.007 2.58724 108.527 2.22266C109.061 1.84506 109.673 1.54558 110.363 1.32422C111.053 1.10287 111.835 0.992192 112.707 0.992192H131.027V6.07032H112.707C112.043 6.07032 111.535 6.2461 111.184 6.59766C110.832 6.94922 110.656 7.47006 110.656 8.16016V21.8711C110.656 22.5221 110.832 23.03 111.184 23.3945C111.548 23.7461 112.056 23.9219 112.707 23.9219H131.027V29Z" fill="#141414"/>
<path d="M164.797 17.6719C164.797 19.3776 164.504 20.9466 163.918 22.3789C163.332 23.8112 162.518 25.0482 161.477 26.0898C160.435 27.1315 159.198 27.9453 157.766 28.5313C156.346 29.1042 154.797 29.3906 153.117 29.3906H146.242C144.562 29.3906 143.007 29.1042 141.574 28.5313C140.142 27.9453 138.905 27.1315 137.863 26.0898C136.822 25.0482 136.001 23.8112 135.402 22.3789C134.816 20.9466 134.523 19.3776 134.523 17.6719V12.3203C134.523 10.6276 134.816 9.06511 135.402 7.63282C136.001 6.1875 136.822 4.95053 137.863 3.92188C138.905 2.88021 140.142 2.06641 141.574 1.48047C143.007 0.894536 144.562 0.601567 146.242 0.601567H153.117C154.797 0.601567 156.346 0.894536 157.766 1.48047C159.198 2.06641 160.435 2.88021 161.477 3.92188C162.518 4.95053 163.332 6.1875 163.918 7.63282C164.504 9.06511 164.797 10.6276 164.797 12.3203V17.6719ZM159.719 12.3203C159.719 11.3177 159.556 10.4128 159.23 9.60547C158.918 8.78516 158.469 8.08855 157.883 7.51563C157.31 6.92969 156.613 6.48047 155.793 6.16797C154.986 5.84245 154.094 5.67969 153.117 5.67969H146.242C145.253 5.67969 144.348 5.84245 143.527 6.16797C142.72 6.48047 142.023 6.92969 141.438 7.51563C140.852 8.08855 140.396 8.78516 140.07 9.60547C139.758 10.4128 139.602 11.3177 139.602 12.3203V17.6719C139.602 18.6745 139.758 19.5859 140.07 20.4063C140.396 21.2135 140.852 21.9102 141.438 22.4961C142.023 23.069 142.72 23.5182 143.527 23.8438C144.348 24.1563 145.253 24.3125 146.242 24.3125H153.078C154.068 24.3125 154.966 24.1563 155.773 23.8438C156.594 23.5182 157.297 23.069 157.883 22.4961C158.469 21.9102 158.918 21.2135 159.23 20.4063C159.556 19.5859 159.719 18.6745 159.719 17.6719V12.3203Z" fill="#141414"/>
<path d="M196.73 20.7578C196.73 21.7604 196.6 22.6654 196.34 23.4727C196.092 24.2669 195.76 24.9701 195.344 25.582C194.927 26.194 194.439 26.7148 193.879 27.1445C193.319 27.5742 192.74 27.9258 192.141 28.1992C191.542 28.4727 190.93 28.6745 190.305 28.8047C189.693 28.9349 189.113 29 188.566 29H168.977V23.9219H188.566C189.543 23.9219 190.298 23.6354 190.832 23.0625C191.379 22.4896 191.652 21.7214 191.652 20.7578C191.652 20.2891 191.581 19.8594 191.438 19.4688C191.294 19.0781 191.086 18.7396 190.812 18.4531C190.552 18.1667 190.227 17.9453 189.836 17.7891C189.458 17.6328 189.035 17.5547 188.566 17.5547H176.887C176.066 17.5547 175.181 17.4115 174.23 17.125C173.28 16.8255 172.395 16.3503 171.574 15.6992C170.767 15.0482 170.09 14.1953 169.543 13.1406C169.009 12.0859 168.742 10.7969 168.742 9.27344C168.742 7.75 169.009 6.46745 169.543 5.42579C170.09 4.3711 170.767 3.51823 171.574 2.86719C172.395 2.20313 173.28 1.72787 174.23 1.44141C175.181 1.14193 176.066 0.992192 176.887 0.992192H194.172V6.07032H176.887C175.923 6.07032 175.168 6.36329 174.621 6.94922C174.087 7.53516 173.82 8.3099 173.82 9.27344C173.82 10.25 174.087 11.0247 174.621 11.5977C175.168 12.1576 175.923 12.4375 176.887 12.4375H188.605C189.152 12.4505 189.732 12.5287 190.344 12.6719C190.956 12.8021 191.561 13.0104 192.16 13.2969C192.772 13.5833 193.352 13.9479 193.898 14.3906C194.445 14.8203 194.927 15.3412 195.344 15.9531C195.773 16.5651 196.112 17.2682 196.359 18.0625C196.607 18.8568 196.73 19.7552 196.73 20.7578Z" fill="#141414"/>
<path d="M28.8594 72.7109C28.8594 73.8698 28.7161 74.905 28.4297 75.8164C28.1432 76.7279 27.7526 77.5352 27.2578 78.2383C26.776 78.9284 26.2161 79.5208 25.5781 80.0156C24.9401 80.5104 24.2695 80.9141 23.5664 81.2266C22.8763 81.5391 22.1732 81.7669 21.457 81.9102C20.7539 82.0534 20.0898 82.125 19.4648 82.125H7.98047V77.0469H19.4648C20.1159 76.9948 20.7018 76.8646 21.2227 76.6563C21.7565 76.4349 22.2122 76.1419 22.5898 75.7774C22.9674 75.4128 23.2604 74.9766 23.4688 74.4688C23.6771 73.9479 23.7812 73.362 23.7812 72.7109V70.4063C23.7161 69.7682 23.5794 69.1823 23.3711 68.6484C23.1628 68.1146 22.8763 67.6589 22.5117 67.2813C22.1602 66.9037 21.7305 66.6107 21.2227 66.4024C20.7148 66.181 20.1289 66.0703 19.4648 66.0703H8.01953C7.34245 66.0703 6.82812 66.2461 6.47656 66.5977C6.125 66.9492 5.94922 67.457 5.94922 68.1211V89H0.871094V68.1211C0.871094 66.819 1.10547 65.7122 1.57422 64.8008C2.05599 63.8893 2.64844 63.1536 3.35156 62.5938C4.06771 62.0339 4.84245 61.6302 5.67578 61.3828C6.50911 61.1224 7.27734 60.9922 7.98047 60.9922H19.4648C20.6107 60.9922 21.6393 61.1419 22.5508 61.4414C23.4622 61.7279 24.263 62.1185 24.9531 62.6133C25.6562 63.0951 26.2487 63.655 26.7305 64.293C27.2253 64.931 27.6289 65.6016 27.9414 66.3047C28.2669 66.9948 28.5013 67.6979 28.6445 68.4141C28.7878 69.1172 28.8594 69.7813 28.8594 70.4063V72.7109Z" fill="#141414"/>
<path d="M60.6953 89H55.6172V82.125H37.7656V89H32.6875V74.9961C32.6875 72.9518 33.0391 71.0703 33.7422 69.3516C34.4453 67.6328 35.4219 66.155 36.6719 64.918C37.9219 63.681 39.3997 62.7175 41.1055 62.0273C42.8112 61.3372 44.6732 60.9922 46.6914 60.9922H58.1367C58.4883 60.9922 58.8203 61.0573 59.1328 61.1875C59.4453 61.3177 59.7188 61.5 59.9531 61.7344C60.1875 61.9688 60.3698 62.2422 60.5 62.5547C60.6302 62.8672 60.6953 63.1992 60.6953 63.5508V89ZM37.7656 77.0469H55.6172V66.0703H46.6914C46.5352 66.0703 46.2031 66.0964 45.6953 66.1484C45.2005 66.1875 44.6211 66.2982 43.957 66.4805C43.306 66.6628 42.6159 66.9427 41.8867 67.3203C41.1576 67.6979 40.487 68.2188 39.875 68.8828C39.263 69.5469 38.7552 70.3802 38.3516 71.3828C37.9609 72.3724 37.7656 73.5768 37.7656 74.9961V77.0469Z" fill="#141414"/>
<path d="M71.7305 89H66.6523V60.9922H71.7305V89Z" fill="#141414"/>
<path d="M90.4609 70.9922L99.0156 60.9922H105.949L93.8984 75.0352L105.871 89H98.9766L90.4609 79.0781L81.9844 89H75.0703L87.0234 75.0352L75.0312 60.9922H81.9062L90.4609 70.9922Z" fill="#141414"/>
<path d="M136.633 89H131.555V82.125H113.703V89H108.625V74.9961C108.625 72.9518 108.977 71.0703 109.68 69.3516C110.383 67.6328 111.359 66.155 112.609 64.918C113.859 63.681 115.337 62.7175 117.043 62.0273C118.749 61.3372 120.611 60.9922 122.629 60.9922H134.074C134.426 60.9922 134.758 61.0573 135.07 61.1875C135.383 61.3177 135.656 61.5 135.891 61.7344C136.125 61.9688 136.307 62.2422 136.438 62.5547C136.568 62.8672 136.633 63.1992 136.633 63.5508V89ZM113.703 77.0469H131.555V66.0703H122.629C122.473 66.0703 122.141 66.0964 121.633 66.1484C121.138 66.1875 120.559 66.2982 119.895 66.4805C119.243 66.6628 118.553 66.9427 117.824 67.3203C117.095 67.6979 116.424 68.2188 115.812 68.8828C115.201 69.5469 114.693 70.3802 114.289 71.3828C113.898 72.3724 113.703 73.5768 113.703 74.9961V77.0469ZM130.305 51.4805C130.305 52.7305 130.174 53.7852 129.914 54.6445C129.654 55.5039 129.302 56.2005 128.859 56.7344C128.417 57.2552 127.896 57.6328 127.297 57.8672C126.711 58.0885 126.086 58.1992 125.422 58.1992C124.719 58.1992 124.126 58.0755 123.645 57.8281C123.163 57.5807 122.733 57.3138 122.355 57.0273C121.978 56.7279 121.62 56.4544 121.281 56.207C120.943 55.9596 120.565 55.8359 120.148 55.8359C119.758 55.8359 119.445 55.9336 119.211 56.1289C118.99 56.3242 118.82 56.5586 118.703 56.832C118.586 57.0925 118.508 57.3529 118.469 57.6133C118.43 57.8737 118.404 58.069 118.391 58.1992H114.934C114.934 57.0925 115.064 56.1224 115.324 55.2891C115.598 54.4427 115.956 53.7396 116.398 53.1797C116.854 52.6068 117.375 52.1836 117.961 51.9102C118.56 51.6237 119.191 51.4805 119.855 51.4805C120.467 51.4805 120.995 51.6042 121.438 51.8516C121.893 52.099 122.316 52.3724 122.707 52.6719C123.098 52.9583 123.475 53.2253 123.84 53.4727C124.217 53.707 124.641 53.8242 125.109 53.8242C125.5 53.8242 125.806 53.7266 126.027 53.5313C126.262 53.3359 126.438 53.1146 126.555 52.8672C126.672 52.6068 126.75 52.3464 126.789 52.0859C126.828 51.8255 126.854 51.6237 126.867 51.4805H130.305Z" fill="#141414"/>
<path d="M171.945 77.6719C171.945 79.3776 171.652 80.9466 171.066 82.3789C170.48 83.8112 169.667 85.0482 168.625 86.0899C167.583 87.1315 166.346 87.9453 164.914 88.5313C163.495 89.1042 161.945 89.3906 160.266 89.3906H153.391C151.711 89.3906 150.155 89.1042 148.723 88.5313C147.29 87.9453 146.053 87.1315 145.012 86.0899C143.97 85.0482 143.15 83.8112 142.551 82.3789C141.965 80.9466 141.672 79.3776 141.672 77.6719V72.3203C141.672 70.6276 141.965 69.0651 142.551 67.6328C143.15 66.1875 143.97 64.9505 145.012 63.9219C146.053 62.8802 147.29 62.0664 148.723 61.4805C150.155 60.8945 151.711 60.6016 153.391 60.6016H160.266C161.945 60.6016 163.495 60.8945 164.914 61.4805C166.346 62.0664 167.583 62.8802 168.625 63.9219C169.667 64.9505 170.48 66.1875 171.066 67.6328C171.652 69.0651 171.945 70.6276 171.945 72.3203V77.6719ZM166.867 72.3203C166.867 71.3177 166.704 70.4128 166.379 69.6055C166.066 68.7852 165.617 68.0885 165.031 67.5156C164.458 66.9297 163.762 66.4805 162.941 66.168C162.134 65.8425 161.242 65.6797 160.266 65.6797H153.391C152.401 65.6797 151.496 65.8425 150.676 66.168C149.868 66.4805 149.172 66.9297 148.586 67.5156C148 68.0885 147.544 68.7852 147.219 69.6055C146.906 70.4128 146.75 71.3177 146.75 72.3203V77.6719C146.75 78.6745 146.906 79.5859 147.219 80.4063C147.544 81.2135 148 81.9102 148.586 82.4961C149.172 83.069 149.868 83.5182 150.676 83.8438C151.496 84.1563 152.401 84.3125 153.391 84.3125H160.227C161.216 84.3125 162.115 84.1563 162.922 83.8438C163.742 83.5182 164.445 83.069 165.031 82.4961C165.617 81.9102 166.066 81.2135 166.379 80.4063C166.704 79.5859 166.867 78.6745 166.867 77.6719V72.3203Z" fill="#141414"/>
</svg>
